<svg width="40" height="40" viewBox="0 0 40 40" fill="none" xmlns="http://www.w3.org/2000/svg">
<path d="M5 38.3333V11.6667C5 10.75 5.32667 9.96555 5.98 9.31332C6.63333 8.6611 7.41778 8.33443 8.33333 8.33332H25C25.9167 8.33332 26.7017 8.65999 27.355 9.31332C28.0083 9.96666 28.3344 10.7511 28.3333 11.6667V38.3333L16.6667 33.3333L5 38.3333ZM8.33333 33.25L16.6667 29.6667L25 33.25V11.6667H8.33333V33.25ZM31.6667 33.3333V4.99999H10V1.66666H31.6667C32.5833 1.66666 33.3683 1.99332 34.0217 2.64666C34.675 3.29999 35.0011 4.08443 35 4.99999V33.3333H31.6667Z" fill="white"/>
</svg>
