<svg width="16" height="16" viewBox="0 0 16 16" fill="red" xmlns="http://www.w3.org/2000/svg">
<path d="M1.99967 14.6667H13.9997C14.1765 14.6667 14.3461 14.5964 14.4711 14.4714C14.5961 14.3464 14.6663 14.1768 14.6663 14V3.99999C14.6663 3.82318 14.5961 3.65361 14.4711 3.52859C14.3461 3.40357 14.1765 3.33333 13.9997 3.33333H11.333V1.99999C11.333 1.82318 11.2628 1.65361 11.1377 1.52859C11.0127 1.40357 10.8432 1.33333 10.6663 1.33333C10.4895 1.33333 10.32 1.40357 10.1949 1.52859C10.0699 1.65361 9.99967 1.82318 9.99967 1.99999V3.33333H5.99967V1.99999C5.99967 1.82318 5.92944 1.65361 5.80441 1.52859C5.67939 1.40357 5.50982 1.33333 5.33301 1.33333C5.1562 1.33333 4.98663 1.40357 4.8616 1.52859C4.73658 1.65361 4.66634 1.82318 4.66634 1.99999V3.33333H1.99967C1.82286 3.33333 1.65329 3.40357 1.52827 3.52859C1.40325 3.65361 1.33301 3.82318 1.33301 3.99999V14C1.33301 14.1768 1.40325 14.3464 1.52827 14.4714C1.65329 14.5964 1.82286 14.6667 1.99967 14.6667ZM2.66634 4.66666H13.333V6.66666H2.66634V4.66666ZM2.66634 7.99999H13.333V13.3333H2.66634V7.99999Z" fill="#8B8A8A"/>
</svg>
