<svg width="35" height="35" viewBox="0 0 35 35" fill="none" xmlns="http://www.w3.org/2000/svg">
<g clip-path="url(#clip0_6_108)">
<path d="M17.5 0.700012C13.0444 0.700012 8.77121 2.47001 5.6206 5.62062C2.46999 8.77123 0.699997 13.0444 0.699997 17.5C0.700112 19.7062 1.13477 21.8908 1.97916 23.929C2.82354 25.9673 4.06112 27.8192 5.62122 29.3792C7.18133 30.9391 9.03341 32.1765 11.0717 33.0206C13.11 33.8648 15.2947 34.2993 17.5009 34.2991C19.7071 34.299 21.8917 33.8644 23.9299 33.02C25.9681 32.1756 27.8201 30.938 29.38 29.3779C30.94 27.8178 32.1773 25.9657 33.0215 23.9274C33.8657 21.8891 34.3001 19.7045 34.3 17.4983C34.3 8.22151 26.7767 0.700012 17.5 0.700012ZM17.5 30.7983C15.7407 30.8184 13.9949 30.4894 12.3636 29.8301C10.7324 29.1708 9.24822 28.1944 7.99701 26.9574C6.7458 25.7205 5.75245 24.2476 5.07449 22.624C4.39653 21.0005 4.04744 19.2586 4.04744 17.4991C4.04744 15.7397 4.39653 13.9978 5.07449 12.3742C5.75245 10.7507 6.7458 9.27777 7.99701 8.04083C9.24822 6.80389 10.7324 5.8275 12.3636 5.16821C13.9949 4.50892 15.7407 4.17983 17.5 4.20001C19.2593 4.17983 21.0051 4.50892 22.6363 5.16821C24.2676 5.8275 25.7518 6.80389 27.003 8.04083C28.2542 9.27777 29.2475 10.7507 29.9255 12.3742C30.6035 13.9978 30.9526 15.7397 30.9526 17.4991C30.9526 19.2586 30.6035 21.0005 29.9255 22.624C29.2475 24.2476 28.2542 25.7205 27.003 26.9574C25.7518 28.1944 24.2676 29.1708 22.6363 29.8301C21.0051 30.4894 19.2593 30.8184 17.5 30.7983ZM13.1267 17.0625C14.5757 17.0625 15.75 15.6923 15.75 14C15.75 12.3078 14.574 10.9375 13.125 10.9375C11.676 10.9375 10.5 12.3078 10.5 14C10.5 15.6923 11.676 17.0625 13.1267 17.0625ZM21.875 17.0625C23.3257 17.0625 24.5 15.6923 24.5 14C24.5 12.3078 23.324 10.9375 21.875 10.9375C20.426 10.9375 19.25 12.3095 19.25 14C19.25 15.6905 20.426 17.0625 21.875 17.0625ZM25.0967 19.838C24.7879 19.6822 24.4303 19.6535 24.1005 19.7582C23.7708 19.8629 23.4952 20.0926 23.3327 20.398C23.2732 20.5135 21.812 23.1858 17.5017 23.1858C13.2125 23.1858 11.7425 20.538 11.669 20.3998C11.5117 20.089 11.2373 19.8535 10.9063 19.7451C10.5754 19.6366 10.2149 19.664 9.90412 19.8214C9.59339 19.9787 9.35788 20.2531 9.24942 20.584C9.14095 20.915 9.16841 21.2755 9.32575 21.5863C9.41325 21.7595 11.5097 25.8108 17.5017 25.8108C23.4955 25.8108 25.5885 21.7578 25.6742 21.5845C25.8284 21.2762 25.8542 20.9194 25.746 20.5921C25.6378 20.2648 25.4044 19.9936 25.0967 19.838Z" fill="#3B984A"/>
</g>
<defs>
<clipPath id="clip0_6_108">
<rect width="35" height="35" fill="white"/>
</clipPath>
</defs>
</svg>
