<svg width="40" height="40" viewBox="0 0 40 40" fill="none" xmlns="http://www.w3.org/2000/svg">
<path d="M22.5 15C22.5 14.5055 22.6466 14.0222 22.9213 13.6111C23.196 13.2 23.5865 12.8795 24.0433 12.6903C24.5001 12.5011 25.0028 12.4516 25.4877 12.548C25.9727 12.6445 26.4181 12.8826 26.7678 13.2322C27.1174 13.5819 27.3555 14.0273 27.452 14.5123C27.5484 14.9972 27.4989 15.4999 27.3097 15.9567C27.1205 16.4135 26.8 16.804 26.3889 17.0787C25.9778 17.3534 25.4945 17.5 25 17.5C24.337 17.5 23.7011 17.2366 23.2322 16.7678C22.7634 16.2989 22.5 15.663 22.5 15ZM36.875 8.75V31.25C36.875 32.0788 36.5458 32.8737 35.9597 33.4597C35.3737 34.0458 34.5788 34.375 33.75 34.375H6.25C5.4212 34.375 4.62634 34.0458 4.04029 33.4597C3.45424 32.8737 3.125 32.0788 3.125 31.25V8.75C3.125 7.9212 3.45424 7.12634 4.04029 6.54029C4.62634 5.95424 5.4212 5.625 6.25 5.625H33.75C34.5788 5.625 35.3737 5.95424 35.9597 6.54029C36.5458 7.12634 36.875 7.9212 36.875 8.75ZM6.875 9.375V21.8312L12.1656 16.5406C12.7516 15.9548 13.5464 15.6257 14.375 15.6257C15.2036 15.6257 15.9984 15.9548 16.5844 16.5406L23.0172 22.9688L25.7016 20.2859C26.2876 19.7001 27.0823 19.371 27.9109 19.371C28.7396 19.371 29.5343 19.7001 30.1203 20.2859L33.125 23.2953V9.375H6.875ZM6.875 30.625H25.3656L14.375 19.6344L6.875 27.1344V30.625ZM33.125 30.625V28.5938L27.9109 23.3797L25.6688 25.625L30.6688 30.625H33.125Z" fill="#3B984A"/>
</svg>
