<svg width="17" height="18" viewBox="0 0 17 18" fill="none" xmlns="http://www.w3.org/2000/svg">
<path d="M12.9271 4.60833C13.6117 4.60833 14.1667 4.05335 14.1667 3.36875C14.1667 2.68415 13.6117 2.12917 12.9271 2.12917C12.2425 2.12917 11.6875 2.68415 11.6875 3.36875C11.6875 4.05335 12.2425 4.60833 12.9271 4.60833Z" fill="#8B8A8A"/>
<path d="M4.07357 4.60833C4.75817 4.60833 5.31315 4.05335 5.31315 3.36875C5.31315 2.68415 4.75817 2.12917 4.07357 2.12917C3.38896 2.12917 2.83398 2.68415 2.83398 3.36875C2.83398 4.05335 3.38896 4.60833 4.07357 4.60833Z" fill="#8B8A8A"/>
<path d="M8.50033 4.60833C9.18493 4.60833 9.73991 4.05335 9.73991 3.36875C9.73991 2.68415 9.18493 2.12917 8.50033 2.12917C7.81572 2.12917 7.26074 2.68415 7.26074 3.36875C7.26074 4.05335 7.81572 4.60833 8.50033 4.60833Z" fill="#8B8A8A"/>
<path d="M11.6529 9.14167L10.856 6.20208C10.8206 6.09583 10.7675 5.98958 10.6967 5.91875C10.3602 5.56458 9.93522 5.29896 9.4748 5.13958C9.17376 5.03333 8.85501 4.98021 8.51855 4.98021C8.18209 4.98021 7.86334 5.03333 7.5623 5.13958C7.08417 5.29896 6.67688 5.56458 6.34042 5.91875C6.26959 6.00729 6.21647 6.09583 6.18105 6.20208L5.38417 9.14167C5.31334 9.425 5.45501 9.74375 5.75605 9.81458C5.80917 9.83229 5.84459 9.83229 5.89771 9.83229C6.12792 9.83229 6.34042 9.67292 6.41126 9.44271L7.11959 6.85729V15.8708H8.18209V10.8063H8.89042V15.8531H9.95292V6.85729L10.6613 9.44271C10.7321 9.67292 10.9446 9.83229 11.1748 9.83229C11.2279 9.83229 11.2633 9.83229 11.3165 9.81458C11.5644 9.74375 11.7238 9.425 11.6529 9.14167Z" fill="#8B8A8A"/>
<path d="M5.01191 9.05312L5.80878 6.11354C5.8442 5.95416 5.93274 5.81249 6.02128 5.68854C5.73795 5.44062 5.38378 5.24583 5.01191 5.12187C4.71087 5.01562 4.39212 4.96249 4.05566 4.96249C3.7192 4.96249 3.40045 5.01562 3.09941 5.12187C2.62128 5.28124 2.21399 5.54687 1.87753 5.90104C1.8067 5.98958 1.75357 6.07812 1.71816 6.18437L0.921283 9.14166C0.850449 9.42499 0.992116 9.74374 1.29316 9.81458C1.34628 9.83228 1.3817 9.83229 1.43482 9.83229C1.66503 9.83229 1.87753 9.67291 1.94837 9.4427L2.6567 6.85729V15.8708H3.7192V10.8062H4.42753V15.8531H5.49003V10.1156C5.11816 9.93854 4.90566 9.49583 5.01191 9.05312Z" fill="#8B8A8A"/>
<path d="M16.0796 9.14167L15.265 6.20208C15.2296 6.09583 15.1765 5.98958 15.1057 5.91875C14.7692 5.56458 14.3442 5.29896 13.8838 5.13958C13.5827 5.03333 13.264 4.98021 12.9275 4.98021C12.5911 4.98021 12.2723 5.03333 11.9713 5.13958C11.5994 5.26354 11.263 5.45833 10.9619 5.70625C11.0682 5.83021 11.139 5.97188 11.1744 6.11354L11.9713 9.05313C12.0952 9.49583 11.865 9.93854 11.4932 10.1156V15.8708H12.5557V10.8063H13.264V15.8531H14.3265V6.85729L15.0348 9.44271C15.1057 9.67292 15.3182 9.83229 15.5484 9.83229C15.6015 9.83229 15.6369 9.83229 15.69 9.81458C15.9911 9.74375 16.1505 9.425 16.0796 9.14167Z" fill="#8B8A8A"/>
</svg>
