<svg width="40" height="40" viewBox="0 0 40 40" fill="none" xmlns="http://www.w3.org/2000/svg">
<path d="M36.6219 32.8125C34.4796 29.0527 31.1345 26.1231 27.125 24.4953C29.1189 22.9999 30.5917 20.915 31.3349 18.536C32.078 16.1571 32.0538 13.6046 31.2656 11.2401C30.4775 8.87564 28.9653 6.8191 26.9434 5.3618C24.9215 3.90449 22.4924 3.1203 20 3.1203C17.5077 3.1203 15.0785 3.90449 13.0566 5.3618C11.0347 6.8191 9.52255 8.87564 8.73439 11.2401C7.94624 13.6046 7.92202 16.1571 8.66516 18.536C9.4083 20.915 10.8811 22.9999 12.875 24.4953C8.86551 26.1231 5.52039 29.0527 3.37813 32.8125C3.24539 33.0259 3.15692 33.2639 3.11798 33.5122C3.07903 33.7605 3.09042 34.0141 3.15145 34.258C3.21248 34.5018 3.32191 34.7309 3.47324 34.9316C3.62457 35.1322 3.8147 35.3005 4.03234 35.4262C4.24998 35.552 4.49068 35.6326 4.74013 35.6635C4.98958 35.6944 5.24269 35.6748 5.48441 35.6058C5.72613 35.5369 5.95153 35.4201 6.1472 35.2624C6.34288 35.1046 6.50484 34.9091 6.62345 34.6875C9.4547 29.7937 14.4547 26.875 20 26.875C25.5453 26.875 30.5453 29.7953 33.3766 34.6875C33.6336 35.1008 34.0413 35.398 34.5135 35.5162C34.9857 35.6344 35.4853 35.5643 35.9068 35.3208C36.3282 35.0773 36.6385 34.6794 36.7719 34.2114C36.9054 33.7433 36.8516 33.2416 36.6219 32.8125ZM11.875 15C11.875 13.393 12.3515 11.8221 13.2443 10.486C14.1371 9.14983 15.4061 8.10843 16.8907 7.49347C18.3754 6.8785 20.009 6.7176 21.5851 7.03111C23.1612 7.34461 24.6089 8.11844 25.7453 9.25474C26.8816 10.391 27.6554 11.8388 27.9689 13.4149C28.2824 14.991 28.1215 16.6246 27.5065 18.1093C26.8916 19.5939 25.8502 20.8629 24.514 21.7557C23.1779 22.6485 21.607 23.125 20 23.125C17.8459 23.1225 15.7807 22.2657 14.2575 20.7425C12.7343 19.2193 11.8775 17.1541 11.875 15Z" fill="white"/>
</svg>
