<svg width="30" height="30" viewBox="0 0 20 20" fill="none" xmlns="http://www.w3.org/2000/svg">
<g clip-path="url(#clip0_68_15)">
<path d="M15.8658 1.64502H3.0174C2.34987 1.64502 1.70967 1.91019 1.23766 2.38221C0.765637 2.85424 0.50046 3.49443 0.50046 4.16196V17.0104C0.50046 17.678 0.765637 18.3182 1.23766 18.7902C1.70967 19.2621 2.34987 19.5274 3.0174 19.5274H8.86493V13.0003H6.65422V10.4543H8.86493V8.5789C8.86493 7.51602 9.15887 6.69008 9.74675 6.10332C10.3346 5.51543 11.1315 5.22038 12.1385 5.22038C13.1466 5.22038 13.7993 5.25949 14.0977 5.33326V7.59985H12.7543C12.2693 7.59985 11.9384 7.70267 11.7607 7.90832C11.5841 8.11285 11.4958 8.42132 11.4958 8.83149V10.4543H14.0139L13.6786 13.0003H11.4958V19.5274H15.8658C16.5334 19.5274 17.1736 19.2621 17.6456 18.7902C18.1177 18.3182 18.3828 17.678 18.3828 17.0104V4.16196C18.3828 3.49443 18.1177 2.85424 17.6456 2.38221C17.1736 1.91019 16.5334 1.64502 15.8658 1.64502Z" fill="#8B8A8A" fill-opacity="0.5"/>
</g>
<defs>
<clipPath id="clip0_68_15">
<rect width="19" height="19" fill="white" transform="translate(0.0218582 0.724609)"/>
</clipPath>
</defs>
</svg>
