<svg width="38" height="38" viewBox="0 0 25 25" fill="none" xmlns="http://www.w3.org/2000/svg">
<path d="M19.0219 3.22461C19.5523 3.22461 20.061 3.43532 20.4361 3.8104C20.8111 4.18547 21.0219 4.69418 21.0219 5.22461V19.2246C21.0219 19.755 20.8111 20.2638 20.4361 20.6388C20.061 21.0139 19.5523 21.2246 19.0219 21.2246H5.02186C4.49143 21.2246 3.98272 21.0139 3.60764 20.6388C3.23257 20.2638 3.02186 19.755 3.02186 19.2246V5.22461C3.02186 4.69418 3.23257 4.18547 3.60764 3.8104C3.98272 3.43532 4.49143 3.22461 5.02186 3.22461H19.0219ZM18.5219 18.7246V13.4246C18.5219 12.56 18.1784 11.7308 17.567 11.1194C16.9557 10.5081 16.1265 10.1646 15.2619 10.1646C14.4119 10.1646 13.4219 10.6846 12.9419 11.4646V10.3546H10.1519V18.7246H12.9419V13.7946C12.9419 13.0246 13.5619 12.3946 14.3319 12.3946C14.7032 12.3946 15.0593 12.5421 15.3218 12.8047C15.5844 13.0672 15.7319 13.4233 15.7319 13.7946V18.7246H18.5219ZM6.90186 8.78461C7.34742 8.78461 7.77474 8.60761 8.0898 8.29255C8.40486 7.97749 8.58186 7.55017 8.58186 7.10461C8.58186 6.17461 7.83186 5.41461 6.90186 5.41461C6.45364 5.41461 6.02378 5.59266 5.70685 5.9096C5.38991 6.22654 5.21186 6.65639 5.21186 7.10461C5.21186 8.03461 5.97186 8.78461 6.90186 8.78461ZM8.29186 18.7246V10.3546H5.52186V18.7246H8.29186Z" fill="#8B8A8A" fill-opacity="0.5"/>
</svg>
