<svg width="32" height="32" viewBox="0 0 32 32" fill="none" xmlns="http://www.w3.org/2000/svg">
<path d="M28.68 19.4533L27.0133 17.6933C27.2262 16.4106 27.1991 15.0995 26.9333 13.8267L28.56 12.0667C28.6863 11.926 28.7707 11.7528 28.8037 11.5667C28.8367 11.3805 28.8169 11.1889 28.7467 11.0133C28.0721 9.34605 27.0753 7.8282 25.8133 6.54668C25.69 6.42337 25.5362 6.33496 25.3675 6.29046C25.1989 6.24596 25.0215 6.24695 24.8533 6.29334L22.4 6.92001C21.6446 6.37687 20.8251 5.92904 19.96 5.58668L19.36 3.29334C19.3154 3.10734 19.2171 2.93858 19.0772 2.80816C18.9373 2.67774 18.762 2.59143 18.5733 2.56001C17.7425 2.4041 16.8987 2.3282 16.0533 2.33334C14.9956 2.33778 13.9427 2.47667 12.92 2.74668C12.7493 2.78958 12.5935 2.87795 12.4691 3.00239C12.3446 3.12683 12.2562 3.28267 12.2133 3.45334L11.5733 5.81334C10.8579 6.13104 10.1784 6.52439 9.54668 6.98668L7.12001 6.38668C6.94963 6.34214 6.77036 6.34466 6.6013 6.39397C6.43224 6.44327 6.27973 6.53753 6.16001 6.66668C4.83438 8.04383 3.82035 9.68992 3.18668 11.4933C3.12523 11.6677 3.11262 11.8555 3.15022 12.0364C3.18782 12.2174 3.2742 12.3846 3.40001 12.52L5.08001 14.2667C4.99495 14.8272 4.95039 15.3931 4.94668 15.96C4.94668 16.36 4.94668 16.76 5.01335 17.16L3.26668 19.1067C3.14913 19.2361 3.06758 19.3941 3.03015 19.5649C2.99271 19.7357 3.00071 19.9133 3.05334 20.08C3.60126 21.843 4.50932 23.4729 5.72001 24.8667C5.84178 25.0099 6.00143 25.1158 6.18065 25.1724C6.35988 25.229 6.55144 25.234 6.73335 25.1867L9.02668 24.6C9.82912 25.2762 10.7279 25.8289 11.6933 26.24L12.36 28.6267C12.4114 28.7997 12.5074 28.9561 12.6385 29.0802C12.7696 29.2043 12.9311 29.2916 13.1067 29.3333C14.068 29.5507 15.052 29.6627 16.04 29.6667C16.8267 29.6587 17.6107 29.5827 18.3867 29.44C18.5707 29.4075 18.742 29.3241 18.8811 29.1992C19.0201 29.0743 19.1214 28.9129 19.1733 28.7333L19.8 26.48C20.9512 26.0682 22.0242 25.464 22.9733 24.6933L25.32 25.2267C25.496 25.2676 25.6798 25.2593 25.8515 25.2029C26.0231 25.1465 26.176 25.044 26.2933 24.9067C27.4621 23.6088 28.3678 22.0964 28.96 20.4533C29.0079 20.2769 29.0071 20.0908 28.9578 19.9148C28.9086 19.7387 28.8126 19.5793 28.68 19.4533ZM16.16 21.1467C15.4862 21.1593 14.8166 21.0377 14.1902 20.789C13.5639 20.5403 12.9932 20.1694 12.5116 19.698C12.03 19.2266 11.6469 18.6641 11.3848 18.0432C11.1227 17.4223 10.9868 16.7555 10.9849 16.0816C10.9831 15.4076 11.1153 14.7401 11.374 14.1177C11.6327 13.4954 12.0126 12.9308 12.4916 12.4567C12.9707 11.9827 13.5392 11.6087 14.1642 11.3565C14.7892 11.1044 15.4581 10.9791 16.132 10.988C17.4793 10.9845 18.7728 11.5163 19.728 12.4665C20.6832 13.4167 21.2218 14.7074 21.2253 16.0547C21.2289 17.402 20.6971 18.6955 19.7469 19.6507C18.7967 20.6059 17.506 21.1445 16.1587 21.148" fill="white"/>
</svg>
