<?xml version="1.0" encoding="utf-8"?>
<!-- Generator: Adobe Illustrator 28.3.0, SVG Export Plug-In . SVG Version: 6.00 Build 0)  -->
<svg version="1.1" id="Calque_1" xmlns="http://www.w3.org/2000/svg" xmlns:xlink="http://www.w3.org/1999/xlink" x="0px" y="0px"
	 viewBox="0 0 300 300" style="enable-background:new 0 0 300 300;" xml:space="preserve">
<g>
	<path d="M150,4c-33.2,0-60.2,29.2-60.2,65.1v62c0,35.9,27,65.1,60.2,65.1s60.2-29.2,60.2-65.1v-62C210.2,33.2,183.2,4,150,4z
		 M193.2,131.1c0,25.8-19.3,46.7-43.2,46.7s-43.2-20.9-43.2-46.7v-62c0-25.8,19.3-46.7,43.2-46.7s43.2,20.9,43.2,46.7V131.1z"/>
	<path d="M150,42.7c-4.8,0-8.5,4-8.5,9.2v24.9c0,5.2,3.7,9.2,8.5,9.2c4.8,0,8.5-4,8.5-9.2V51.9C158.5,47,154.8,42.7,150,42.7z"/>
	<path d="M167.6,210L150,229.4l-17.6-19c-3.4-3.7-8.8-3.7-12.2,0c-3.4,3.7-3.4,9.5,0,13.2l23.9,25.8c1.7,1.8,4,2.8,6,2.8
		c2,0,4.3-0.9,6-2.8l23.9-25.8c3.4-3.7,3.4-9.5,0-13.2S171,206.6,167.6,210z"/>
	<path d="M167.6,254.2l-17.6,19l-17.6-19c-3.4-3.7-8.8-3.7-12.2,0c-3.4,3.7-3.4,9.5,0,13.2l23.9,25.8c1.7,1.8,4,2.8,6,2.8
		c2,0,4.3-0.9,6-2.8l23.9-25.8c3.4-3.7,3.4-9.5,0-13.2C176.4,250.6,171,250.6,167.6,254.2z"/>
</g>
</svg>
