<?xml version="1.0" ?><svg viewBox="0 0 512 512" xmlns="http://www.w3.org/2000/svg"><g id="Wine_glass"><path d="M348.3247,450.3777,269.1282,399.98V290.05a100.8309,100.8309,0,0,0,87.7542-99.9317c0-49.9257-18.7468-112.2175-26.2423-135.1282A13.0636,13.0636,0,0,0,318.171,46H193.827a13.0634,13.0634,0,0,0-12.4691,8.9908c-7.495,22.9109-26.24,85.2024-26.24,135.1279a100.8292,100.8292,0,0,0,87.7606,99.9328v109.924l-79.205,50.4022A8.4735,8.4735,0,0,0,168.2212,466H343.7766a8.4736,8.4736,0,0,0,4.5481-15.6223ZM255.9861,265.2905l-9.7156-1.269a74.7143,74.7143,0,0,1-64.9072-73.9007c0-6.9566.4337-14.2294,1.1536-21.6208H329.4831c.7178,7.3914,1.1515,14.6642,1.1515,21.6208a74.7068,74.7068,0,0,1-64.8987,73.8965Z"/></g></svg>